<svg width="88" height="11" viewBox="0 0 88 11" fill="none" xmlns="http://www.w3.org/2000/svg">
<path d="M6.168 3.544V4.504L0.912 6.232V5.308L6.168 3.544ZM0.912 5.896L6.168 7.624V8.56L0.912 6.796V5.896ZM1.752 5.572V6.556H1.392V5.572H1.752ZM7.23413 10L10.1261 1.24H13.3061L16.3061 10H14.2661L11.8421 2.596L12.4661 2.848H10.9181L11.5661 2.596L9.20213 10H7.23413ZM9.43013 7.828L10.0301 6.196H13.4621L14.0741 7.828H9.43013ZM20.5474 10.216C20.0834 10.216 19.6594 10.132 19.2754 9.964C18.8994 9.796 18.5714 9.564 18.2914 9.268C18.0114 8.964 17.7954 8.608 17.6434 8.2C17.4994 7.792 17.4274 7.352 17.4274 6.88V6.604C17.4274 6.132 17.4954 5.692 17.6314 5.284C17.7754 4.876 17.9794 4.52 18.2434 4.216C18.5154 3.904 18.8394 3.664 19.2154 3.496C19.5914 3.32 20.0114 3.232 20.4754 3.232C21.0034 3.232 21.4594 3.348 21.8434 3.58C22.2274 3.804 22.5274 4.14 22.7434 4.588C22.9594 5.028 23.0794 5.572 23.1034 6.22L22.5994 5.752V1.24H24.5314V10H23.0074V7.276H23.2714C23.2474 7.9 23.1154 8.432 22.8754 8.872C22.6434 9.312 22.3274 9.648 21.9274 9.88C21.5274 10.104 21.0674 10.216 20.5474 10.216ZM21.0274 8.608C21.3234 8.608 21.5914 8.544 21.8314 8.416C22.0794 8.28 22.2754 8.084 22.4194 7.828C22.5714 7.572 22.6474 7.264 22.6474 6.904V6.46C22.6474 6.108 22.5714 5.812 22.4194 5.572C22.2674 5.332 22.0674 5.148 21.8194 5.02C21.5714 4.892 21.3034 4.828 21.0154 4.828C20.6954 4.828 20.4074 4.912 20.1514 5.08C19.9034 5.24 19.7074 5.464 19.5634 5.752C19.4194 6.032 19.3474 6.36 19.3474 6.736C19.3474 7.12 19.4194 7.452 19.5634 7.732C19.7074 8.012 19.9074 8.228 20.1634 8.38C20.4194 8.532 20.7074 8.608 21.0274 8.608ZM26.8729 10V3.424H28.3969V6.244H28.3609C28.3609 5.316 28.5569 4.6 28.9489 4.096C29.3489 3.592 29.9249 3.34 30.6769 3.34H30.9289V4.996H30.4489C29.9209 4.996 29.5129 5.14 29.2249 5.428C28.9369 5.708 28.7929 6.116 28.7929 6.652V10H26.8729ZM32.8357 10V3.424H34.7557V10H32.8357ZM31.9597 4.84V3.424H34.7557V4.84H31.9597ZM33.5797 2.776C33.2197 2.776 32.9517 2.684 32.7757 2.5C32.6077 2.308 32.5237 2.068 32.5237 1.78C32.5237 1.484 32.6077 1.244 32.7757 1.06C32.9517 0.867999 33.2197 0.771999 33.5797 0.771999C33.9397 0.771999 34.2037 0.867999 34.3717 1.06C34.5477 1.244 34.6357 1.484 34.6357 1.78C34.6357 2.068 34.5477 2.308 34.3717 2.5C34.2037 2.684 33.9397 2.776 33.5797 2.776ZM41.1035 10V8.056H40.7795V5.944C40.7795 5.608 40.6995 5.356 40.5395 5.188C40.3795 5.02 40.1235 4.936 39.7715 4.936C39.5955 4.936 39.3635 4.94 39.0755 4.948C38.7875 4.956 38.4915 4.968 38.1875 4.984C37.8835 5 37.6075 5.016 37.3595 5.032V3.412C37.5435 3.396 37.7595 3.38 38.0075 3.364C38.2555 3.348 38.5115 3.336 38.7755 3.328C39.0395 3.32 39.2875 3.316 39.5195 3.316C40.1915 3.316 40.7555 3.412 41.2115 3.604C41.6755 3.796 42.0275 4.088 42.2675 4.48C42.5075 4.864 42.6275 5.36 42.6275 5.968V10H41.1035ZM39.0035 10.168C38.5315 10.168 38.1155 10.084 37.7555 9.916C37.4035 9.748 37.1275 9.508 36.9275 9.196C36.7275 8.876 36.6275 8.496 36.6275 8.056C36.6275 7.576 36.7515 7.184 36.9995 6.88C37.2475 6.568 37.5955 6.34 38.0435 6.196C38.4915 6.044 39.0075 5.968 39.5915 5.968H40.9955V7.036H39.5795C39.2435 7.036 38.9835 7.12 38.7995 7.288C38.6235 7.448 38.5355 7.668 38.5355 7.948C38.5355 8.212 38.6235 8.428 38.7995 8.596C38.9835 8.756 39.2435 8.836 39.5795 8.836C39.7955 8.836 39.9875 8.8 40.1555 8.728C40.3315 8.648 40.4755 8.516 40.5875 8.332C40.6995 8.148 40.7635 7.892 40.7795 7.564L41.2355 8.044C41.1955 8.5 41.0835 8.884 40.8995 9.196C40.7235 9.508 40.4755 9.748 40.1555 9.916C39.8435 10.084 39.4595 10.168 39.0035 10.168ZM44.8565 10V3.424H46.3805V6.244H46.2725C46.2725 5.572 46.3565 5.012 46.5245 4.564C46.7005 4.116 46.9645 3.78 47.3165 3.556C47.6685 3.332 48.0965 3.22 48.6005 3.22H48.6845C49.4525 3.22 50.0365 3.472 50.4365 3.976C50.8445 4.472 51.0485 5.228 51.0485 6.244V10H49.1285V6.136C49.1285 5.784 49.0245 5.496 48.8165 5.272C48.6085 5.048 48.3285 4.936 47.9765 4.936C47.6165 4.936 47.3245 5.052 47.1005 5.284C46.8845 5.508 46.7765 5.804 46.7765 6.172V10H44.8565ZM59.3172 10.204C58.8452 10.204 58.4172 10.116 58.0332 9.94C57.6572 9.756 57.3372 9.512 57.0732 9.208C56.8092 8.896 56.6052 8.544 56.4612 8.152C56.3252 7.76 56.2572 7.348 56.2572 6.916V6.796C56.2572 6.38 56.3252 5.98 56.4612 5.596C56.5972 5.204 56.7932 4.852 57.0492 4.54C57.3132 4.22 57.6332 3.968 58.0092 3.784C58.3852 3.6 58.8172 3.508 59.3052 3.508C59.8732 3.508 60.3652 3.636 60.7812 3.892C61.2052 4.148 61.5332 4.5 61.7652 4.948C62.0052 5.388 62.1332 5.892 62.1492 6.46L61.8252 5.752V1.24H62.4612V10H61.9572V7.204H62.1972C62.1812 7.804 62.0492 8.332 61.8012 8.788C61.5532 9.236 61.2132 9.584 60.7812 9.832C60.3572 10.08 59.8692 10.204 59.3172 10.204ZM59.3772 9.628C59.8652 9.628 60.2932 9.52 60.6612 9.304C61.0372 9.088 61.3292 8.796 61.5372 8.428C61.7532 8.052 61.8612 7.624 61.8612 7.144V6.52C61.8612 6.064 61.7532 5.652 61.5372 5.284C61.3292 4.916 61.0372 4.624 60.6612 4.408C60.2932 4.192 59.8652 4.084 59.3772 4.084C58.8492 4.084 58.4012 4.212 58.0332 4.468C57.6652 4.724 57.3812 5.064 57.1812 5.488C56.9892 5.904 56.8932 6.36 56.8932 6.856C56.8932 7.368 56.9932 7.836 57.1932 8.26C57.3932 8.676 57.6772 9.008 58.0452 9.256C58.4212 9.504 58.8652 9.628 59.3772 9.628ZM67.4977 10.204C66.9617 10.204 66.4977 10.112 66.1057 9.928C65.7137 9.736 65.3937 9.484 65.1457 9.172C64.8977 8.852 64.7097 8.496 64.5817 8.104C64.4617 7.704 64.4017 7.3 64.4017 6.892V6.772C64.4017 6.356 64.4617 5.956 64.5817 5.572C64.7097 5.188 64.8977 4.84 65.1457 4.528C65.4017 4.208 65.7177 3.96 66.0937 3.784C66.4777 3.6 66.9217 3.508 67.4257 3.508C68.0657 3.508 68.6017 3.652 69.0337 3.94C69.4737 4.22 69.8057 4.588 70.0297 5.044C70.2537 5.5 70.3657 5.98 70.3657 6.484V6.916H64.7017V6.388H69.9457L69.7537 6.628C69.7537 6.14 69.6617 5.704 69.4777 5.32C69.3017 4.936 69.0377 4.636 68.6857 4.42C68.3417 4.196 67.9217 4.084 67.4257 4.084C66.8897 4.084 66.4417 4.208 66.0817 4.456C65.7217 4.704 65.4497 5.036 65.2657 5.452C65.0897 5.868 65.0017 6.328 65.0017 6.832C65.0017 7.336 65.0897 7.8 65.2657 8.224C65.4497 8.64 65.7257 8.98 66.0937 9.244C66.4617 9.5 66.9297 9.628 67.4977 9.628C68.1057 9.628 68.5937 9.488 68.9617 9.208C69.3377 8.928 69.5657 8.592 69.6457 8.2H70.2697C70.1817 8.592 70.0137 8.94 69.7657 9.244C69.5177 9.548 69.2017 9.784 68.8177 9.952C68.4417 10.12 68.0017 10.204 67.4977 10.204ZM73.6005 10L71.3085 3.7H71.9805L74.2365 10H73.6005ZM73.7925 10V9.46H74.6685V10H73.7925ZM74.2245 10L76.2405 3.7H76.8645L74.8365 10H74.2245ZM77.6461 10.72L80.0941 0.64H81.1741L78.7261 10.72H77.6461ZM82.3831 8.56V7.6L87.6391 5.872V6.796L82.3831 8.56ZM87.6391 6.208L82.3831 4.48V3.544L87.6391 5.308V6.208ZM86.7991 6.532V5.548H87.1591V6.532H86.7991Z" fill="white"/>
<path d="M53.2846 10V8.536H54.6766V10H53.2846Z" fill="#F13024"/>
</svg>
